<?xml version="1.0" standalone="no"?>
<!DOCTYPE svg PUBLIC "-//W3C//DTD SVG 20010904//EN"
 "http://www.w3.org/TR/2001/REC-SVG-20010904/DTD/svg10.dtd">
<svg version="1.0" xmlns="http://www.w3.org/2000/svg"
 width="260.000000pt" height="260.000000pt" viewBox="0 0 260.000000 260.000000"
 preserveAspectRatio="xMidYMid meet">
<metadata>
Created by potrace 1.14, written by Peter Selinger 2001-2017
</metadata>
<g transform="translate(0.000000,260.000000) scale(0.100000,-0.100000)"
fill="#000000" stroke="none">
<path d="M0 1300 l0 -1300 1300 0 1300 0 0 1300 0 1300 -1300 0 -1300 0 0
-1300z m1071 662 c127 -61 216 -189 227 -324 l5 -68 -140 0 -140 0 -6 38 c-4
25 -18 49 -41 71 -29 28 -45 35 -88 39 -61 4 -106 -19 -145 -77 -25 -37 -31
-107 -12 -143 6 -11 110 -125 231 -252 187 -197 225 -242 256 -305 35 -72 37
-79 36 -175 0 -118 -21 -183 -85 -268 -197 -265 -593 -244 -733 38 -24 49 -46
134 -46 179 l0 25 138 0 137 0 18 -49 c53 -149 263 -123 293 36 12 63 -10 93
-242 339 -280 296 -289 312 -289 484 0 108 2 119 32 182 36 76 116 167 181
205 81 48 148 64 252 60 82 -3 104 -8 161 -35z m215 -489 c-15 -61 -62 -139
-122 -202 l-63 -66 -98 97 -98 98 50 50 49 50 144 0 144 0 -6 -27z m-592 -465
c48 -50 85 -95 84 -99 -2 -4 -22 -28 -46 -53 l-42 -46 -140 0 -140 0 0 23 c0
60 144 267 185 267 7 0 52 -41 99 -92z m828 -91 l-172 -172 170 -170 c93 -93
170 -173 170 -177 0 -5 -86 -8 -192 -8 l-192 0 -37 36 -36 35 33 63 c79 149
83 303 12 454 l-30 64 23 24 c22 24 24 24 223 24 l201 0 -173 -173z"/>
</g>
</svg>
