<svg xmlns="http://www.w3.org/2000/svg" viewBox="0 0 334.84 180"><defs><style>.cls-1{fill:#3273eb;}.cls-2{fill:#fff;}</style></defs><g id="Layer_2" data-name="Layer 2"><g id="Logo"><polygon class="cls-1" points="164 140.56 164 164 16 164 16 16 164 16 164 39.49 180 39.49 180 0 0 0 0 180 180 180 180 140.56 164 140.56"/><path class="cls-2" d="M186.44,74a20.16,20.16,0,0,1,9.61-2.24A21.53,21.53,0,0,1,207.72,75,22.6,22.6,0,0,1,216,84.33a31.16,31.16,0,0,1,3,14.09,31.41,31.41,0,0,1-3,14.14,22.83,22.83,0,0,1-8.26,9.43,21.31,21.31,0,0,1-11.67,3.31,20.13,20.13,0,0,1-9.61-2.19,17,17,0,0,1-6.44-5.83v7.28H164V55.49h16V79.85A16.35,16.35,0,0,1,186.44,74Zm13,15.07a10.94,10.94,0,0,0-8.17-3.4,10.77,10.77,0,0,0-8.07,3.45q-3.32,3.45-3.31,9.43t3.31,9.42a11.16,11.16,0,0,0,16.19,0c2.24-2.34,3.36-5.49,3.36-9.48S201.67,91.32,199.46,89Z"/><path class="cls-2" d="M238.23,122a23.92,23.92,0,0,1-9.61-9.34,27.89,27.89,0,0,1-3.5-14.18,27.6,27.6,0,0,1,3.55-14.14,24,24,0,0,1,9.7-9.38A30.82,30.82,0,0,1,266,75a24.07,24.07,0,0,1,9.71,9.38,27.7,27.7,0,0,1,3.55,14.14,27.36,27.36,0,0,1-3.6,14.14,24.3,24.3,0,0,1-9.8,9.38A29.28,29.28,0,0,1,252,125.3,28.75,28.75,0,0,1,238.23,122Zm21.56-13.91q3.22-3.36,3.22-9.61t-3.12-9.62a10.6,10.6,0,0,0-15.45,0q-3.08,3.31-3.08,9.66t3,9.61a9.83,9.83,0,0,0,7.61,3.36A10.38,10.38,0,0,0,259.79,108.13Z"/><path class="cls-2" d="M316.92,124.56l-10-14.47-8.4,14.47H281.26L298.44,98,280.8,72.48h17.92l10,14.37,8.4-14.37h17.27L316.92,98.7l17.92,25.86Z"/><path class="cls-2" d="M42.33,122.83a20.68,20.68,0,0,1-8.4-6.39,16.79,16.79,0,0,1-3.46-9.1H46.25a6,6,0,0,0,2.52,4.38,8.91,8.91,0,0,0,5.5,1.68,7.81,7.81,0,0,0,4.62-1.16,3.58,3.58,0,0,0,1.64-3,3.5,3.5,0,0,0-2.34-3.31,46.2,46.2,0,0,0-7.56-2.38,71.68,71.68,0,0,1-9.33-2.75,16.1,16.1,0,0,1-6.44-4.58,12.47,12.47,0,0,1-2.71-8.44,14.35,14.35,0,0,1,2.48-8.17,16.6,16.6,0,0,1,7.28-5.83,27.85,27.85,0,0,1,11.43-2.15q9.79,0,15.45,4.85a18.91,18.91,0,0,1,6.48,12.88H60.53A6.36,6.36,0,0,0,58.15,85a8.26,8.26,0,0,0-5.28-1.59,7.27,7.27,0,0,0-4.29,1.08,3.4,3.4,0,0,0-1.49,2.94,3.59,3.59,0,0,0,2.38,3.36,38.68,38.68,0,0,0,7.42,2.24A78.39,78.39,0,0,1,66.31,96a16.29,16.29,0,0,1,6.4,4.66,13.24,13.24,0,0,1,2.84,8.64A13.67,13.67,0,0,1,73,117.46a17,17,0,0,1-7.37,5.65,28.24,28.24,0,0,1-11.16,2A29.83,29.83,0,0,1,42.33,122.83Z"/><path class="cls-2" d="M136,124.42l-6.07-5.88q-9,6.9-21.65,6.9A32.33,32.33,0,0,1,95.12,123a19.61,19.61,0,0,1-8.63-7,18.53,18.53,0,0,1-3-10.59,19.74,19.74,0,0,1,3.32-11.16,24,24,0,0,1,9.94-8.16,21,21,0,0,1-3.46-5.74,17.21,17.21,0,0,1-1-6,15.64,15.64,0,0,1,2.42-8.5,16.51,16.51,0,0,1,7-6,25.41,25.41,0,0,1,11-2.19,23.5,23.5,0,0,1,10.92,2.33,16.08,16.08,0,0,1,6.72,6.26,15.65,15.65,0,0,1,2.05,8.58h-15a4.56,4.56,0,0,0-4.85-5.22,5.45,5.45,0,0,0-3.73,1.3,4.28,4.28,0,0,0-1.5,3.36,8.13,8.13,0,0,0,1.26,4.11,28.08,28.08,0,0,0,4,5l16,15.58c.13-.31.3-.68.51-1.12s.46-.93.7-1.49l3.46-5.88h16l-4.48,8.12a76.66,76.66,0,0,1-5.79,10.45l15.77,15.5ZM120.13,109l-14.56-14.1q-6.72,3.47-6.72,9.34a7.49,7.49,0,0,0,2.76,5.92,10.93,10.93,0,0,0,7.42,2.38A18.33,18.33,0,0,0,120.13,109Z"/><path class="cls-2" d="M186.44,73.83a20.16,20.16,0,0,1,9.61-2.24,21.53,21.53,0,0,1,11.67,3.27A22.6,22.6,0,0,1,216,84.19a31.16,31.16,0,0,1,3,14.09,31.41,31.41,0,0,1-3,14.14,22.83,22.83,0,0,1-8.26,9.43,21.31,21.31,0,0,1-11.67,3.31,20.13,20.13,0,0,1-9.61-2.19,17,17,0,0,1-6.44-5.83v7.28H164V55.35h16V79.71A16.35,16.35,0,0,1,186.44,73.83Zm13,15.07a10.94,10.94,0,0,0-8.17-3.4A10.77,10.77,0,0,0,183.22,89q-3.32,3.45-3.31,9.43t3.31,9.42a11.16,11.16,0,0,0,16.19,0c2.24-2.34,3.36-5.49,3.36-9.48S201.67,91.18,199.46,88.9Z"/><path class="cls-2" d="M238.23,121.9a23.92,23.92,0,0,1-9.61-9.34,27.89,27.89,0,0,1-3.5-14.18,27.6,27.6,0,0,1,3.55-14.14,24,24,0,0,1,9.7-9.38,30.82,30.82,0,0,1,27.63,0,24.07,24.07,0,0,1,9.71,9.38,27.7,27.7,0,0,1,3.55,14.14,27.36,27.36,0,0,1-3.6,14.14,24.3,24.3,0,0,1-9.8,9.38A29.28,29.28,0,0,1,252,125.16,28.75,28.75,0,0,1,238.23,121.9ZM259.79,108q3.22-3.36,3.22-9.61t-3.12-9.62a10.6,10.6,0,0,0-15.45,0q-3.08,3.32-3.08,9.66t3,9.61a9.83,9.83,0,0,0,7.61,3.36A10.38,10.38,0,0,0,259.79,108Z"/><path class="cls-2" d="M316.92,124.42l-10-14.47-8.4,14.47H281.26l17.18-26.6L280.8,72.34h17.92l10,14.37,8.4-14.37h17.27L316.92,98.56l17.92,25.86Z"/></g></g></svg>